<svg width="219" height="227" viewBox="0 0 219 227" fill="none" xmlns="http://www.w3.org/2000/svg">
<g filter="url(#filter0_d)">
<circle cx="109.109" cy="105.109" r="105.109" fill="black"/>
</g>
<path d="M181.574 96.0013C181.873 95.08 183.177 95.08 183.476 96.0013L184.372 98.759C184.506 99.1711 184.89 99.45 185.323 99.45H188.223C189.192 99.45 189.594 100.69 188.811 101.259L186.465 102.963C186.114 103.218 185.968 103.669 186.101 104.081L186.998 106.839C187.297 107.761 186.242 108.527 185.459 107.957L183.113 106.253C182.762 105.998 182.288 105.998 181.937 106.253L179.591 107.957C178.808 108.527 177.753 107.761 178.052 106.839L178.949 104.081C179.082 103.669 178.936 103.218 178.585 102.963L176.239 101.259C175.456 100.69 175.858 99.45 176.827 99.45H179.727C180.16 99.45 180.544 99.1711 180.678 98.759L181.574 96.0013Z" fill="#CEE441"/>
<path d="M20.2995 98.4075C20.5989 97.4862 21.9023 97.4862 22.2016 98.4075L23.0977 101.165C23.2316 101.577 23.6155 101.856 24.0487 101.856H26.9484C27.9171 101.856 28.3199 103.096 27.5362 103.665L25.1903 105.37C24.8398 105.624 24.6932 106.076 24.827 106.488L25.7231 109.245C26.0224 110.167 24.968 110.933 24.1843 110.364L21.8384 108.659C21.4879 108.404 21.0133 108.404 20.6628 108.659L18.3169 110.364C17.5332 110.933 16.4787 110.167 16.7781 109.245L17.6741 106.488C17.808 106.076 17.6613 105.624 17.3108 105.37L14.9649 103.665C14.1812 103.096 14.584 101.856 15.5527 101.856H18.4524C18.8856 101.856 19.2696 101.577 19.4035 101.165L20.2995 98.4075Z" fill="#CEE441"/>
<g clip-path="url(#clip0)">
<path d="M76.5988 167.389C74.9357 167.613 73.3591 166.514 73.014 164.846C72.0479 160.175 73.1891 155.656 76.1442 152.447C79.3025 149.018 84.2438 147.433 89.7014 148.101C97.4768 149.053 98.9619 145.09 100.917 138.003C101.167 137.095 101.426 136.156 101.707 135.256C102.237 133.556 104.045 132.608 105.745 133.138C107.445 133.668 108.393 135.477 107.863 137.176C107.614 137.974 107.381 138.821 107.133 139.718C106.18 143.175 105.099 147.093 102.549 150.102C99.4556 153.75 94.8699 155.231 88.9178 154.503C85.4983 154.084 82.6469 154.906 80.888 156.816C79.3349 158.502 78.7815 160.89 79.3294 163.54C79.6902 165.284 78.5689 166.99 76.8247 167.35C76.7495 167.366 76.6741 167.379 76.5988 167.389Z" fill="#DEE2E5"/>
<path d="M76.5993 167.389C76.6743 167.379 76.7497 167.366 76.8252 167.35C78.5691 166.989 79.6904 165.283 79.3298 163.54C79.1774 162.802 79.1132 162.086 79.1293 161.399C77.0336 160.937 74.4698 161.291 72.686 161.805C72.6981 162.803 72.8026 163.82 73.0148 164.846C73.3598 166.514 74.9364 167.613 76.5993 167.389Z" fill="#7694E4"/>
<path d="M115.933 166.813C115.368 166.889 114.78 166.872 114.19 166.749C111.4 166.166 109.612 163.433 110.194 160.644C111.479 154.496 108.566 149.45 106.428 147.714C104.216 145.918 103.879 142.668 105.676 140.457C107.472 138.245 110.721 137.908 112.933 139.705C115.712 141.961 118.002 145.332 119.381 149.196C120.926 153.528 121.243 158.216 120.295 162.754C119.835 164.952 118.039 166.529 115.933 166.813Z" fill="#DEE2E5"/>
<path opacity="0.1" d="M115.933 166.813C115.368 166.889 114.78 166.872 114.19 166.749C111.4 166.166 109.612 163.433 110.194 160.644C111.479 154.496 108.566 149.45 106.428 147.714C104.216 145.918 103.879 142.668 105.676 140.457C107.472 138.245 110.721 137.908 112.933 139.705C115.712 141.961 118.002 145.332 119.381 149.196C120.926 153.528 121.243 158.216 120.295 162.754C119.835 164.952 118.039 166.529 115.933 166.813Z" fill="black"/>
<path d="M73.6661 139.854C71.9443 140.086 70.1465 139.443 68.9698 137.996C67.172 135.786 67.5065 132.536 69.717 130.738C76.5102 125.214 89.5356 124.355 96.1997 125.514C99.0067 126.003 100.886 128.674 100.398 131.481C99.9096 134.288 97.2385 136.168 94.431 135.68C89.0441 134.742 79.7232 135.9 76.2274 138.743C75.4637 139.365 74.5753 139.731 73.6661 139.854Z" fill="#DEE2E5"/>
<path d="M138.119 159.901C137.823 159.941 137.52 159.956 137.211 159.943C134.365 159.825 132.152 157.422 132.269 154.575C132.477 149.539 129.425 147.469 126.281 145.781L126.143 145.706C123.634 144.356 122.694 141.228 124.044 138.719C125.394 136.21 128.523 135.27 131.032 136.62L131.163 136.69C134.108 138.272 143.071 143.084 142.579 155.001C142.474 157.539 140.552 159.574 138.119 159.901Z" fill="#DEE2E5"/>
<path opacity="0.1" d="M138.12 159.901C137.824 159.941 137.521 159.956 137.212 159.943C134.365 159.825 132.152 157.422 132.27 154.575C132.478 149.539 129.426 147.469 126.282 145.781L126.144 145.706C123.634 144.356 122.695 141.228 124.044 138.719C125.394 136.21 128.523 135.27 131.032 136.62L131.163 136.69C134.108 138.272 143.072 143.084 142.579 155.001C142.475 157.539 140.553 159.574 138.12 159.901Z" fill="black"/>
<path d="M158.154 129.272C157.478 129.363 156.774 129.321 156.075 129.125C148.256 126.933 141.917 127.443 136.125 130.728C133.646 132.134 130.498 131.265 129.092 128.787C127.686 126.308 128.556 123.16 131.034 121.754C139.262 117.087 148.364 116.248 158.86 119.19C161.604 119.959 163.205 122.806 162.435 125.55C161.862 127.595 160.133 129.005 158.154 129.272Z" fill="#DEE2E5"/>
<path opacity="0.2" d="M102.549 150.101C105.099 147.092 106.18 143.174 107.134 139.717C107.381 138.82 107.614 137.973 107.863 137.176C108.394 135.476 107.445 133.667 105.745 133.137C104.045 132.607 102.237 133.555 101.707 135.255C101.427 136.155 101.168 137.094 100.917 138.002C99.5064 143.118 98.3389 146.604 94.875 147.791C95.291 148.175 95.7197 148.548 96.1628 148.909C97.5679 150.052 99.0846 151.048 100.682 151.899C101.354 151.374 101.977 150.775 102.549 150.101Z" fill="black"/>
<path opacity="0.1" d="M137.593 144.678C138.067 144.102 138.514 143.511 138.934 142.909C136.244 139.419 132.788 137.562 131.163 136.69L131.032 136.62C128.523 135.27 125.394 136.21 124.044 138.719C122.695 141.228 123.634 144.356 126.144 145.706L126.282 145.781C128.327 146.879 130.332 148.139 131.428 150.272C133.733 148.722 135.811 146.846 137.593 144.678Z" fill="black"/>
<path opacity="0.1" d="M118.672 155.076C119.343 154.986 120.007 154.873 120.664 154.741C120.449 152.856 120.022 150.996 119.381 149.197C118.002 145.333 115.712 141.962 112.933 139.706C110.721 137.909 107.472 138.245 105.676 140.457C103.879 142.669 104.216 145.919 106.428 147.715C107.865 148.882 109.651 151.547 110.278 155.035C111.693 155.24 113.13 155.352 114.578 155.352C115.938 155.352 117.315 155.259 118.672 155.076Z" fill="black"/>
<path opacity="0.2" d="M129.092 128.787C130.498 131.265 133.646 132.135 136.125 130.729C138.535 129.362 141.041 128.477 143.708 128.066C143.713 126.886 143.637 125.699 143.477 124.511C143.171 122.233 142.559 120.025 141.671 117.936C137.953 118.563 134.42 119.834 131.034 121.754C128.556 123.16 127.686 126.309 129.092 128.787Z" fill="black"/>
<path opacity="0.2" d="M100.398 131.481C100.887 128.674 99.0071 126.003 96.2001 125.514C93.7015 125.08 90.3085 124.929 86.6848 125.201C86.3651 127.466 86.3451 129.801 86.6632 132.163C86.8147 133.288 87.0419 134.395 87.3382 135.479C89.9116 135.274 92.4402 135.333 94.4314 135.68C97.2389 136.169 99.91 134.289 100.398 131.481Z" fill="black"/>
<path d="M138.643 125.161C137.013 113.059 125.134 104.67 112.111 106.425C99.0879 108.179 89.8523 119.412 91.4826 131.514C93.1129 143.616 104.992 152.005 118.015 150.25C131.038 148.496 140.273 137.263 138.643 125.161Z" fill="#DEE2E5"/>
<path opacity="0.1" d="M114.547 150.482C102.817 144.859 104.204 129.907 105.179 123.319L103.293 109.316C95.2055 113.764 90.2589 122.392 91.4878 131.514C92.9714 142.53 102.947 150.468 114.547 150.482Z" fill="black"/>
<path d="M164.767 76.7811C168.054 101.18 144.923 117.723 114.198 121.861C83.4729 126 56.7889 116.167 53.5025 91.7684C50.216 67.3696 69.2807 48.3449 103.671 43.7125C138.062 39.0801 161.481 52.382 164.767 76.7811Z" fill="#82C7E6"/>
<path d="M114.295 122.581C104.507 123.899 95.3271 123.539 87.9117 121.148L86.9005 125.728C86.5206 127.448 87.5958 129.153 89.3116 129.552C96.833 131.302 105.676 131.55 115.328 130.25C124.98 128.95 133.442 126.37 140.232 122.693C141.781 121.854 142.367 119.926 141.546 118.368L139.359 114.219C132.84 118.486 124.083 121.262 114.295 122.581Z" fill="#7694E4"/>
<path d="M95.6002 92.2721C99.6932 87.7784 101.899 80.8631 94.0955 72.1309C86.2306 63.3297 76.1362 62.2177 68.6316 64.1431C66.7814 64.6178 65.3823 66.154 65.0819 68.0401C63.8635 75.6911 65.9108 85.6384 75.406 92.6495C84.8272 99.6057 91.5071 96.7659 95.6002 92.2721Z" fill="#EDA751"/>
<path d="M64.9266 69.2061C64.0896 76.6801 66.3859 85.9884 75.4062 92.6488C83.572 98.6783 89.6769 97.3464 93.8246 93.9587C87.8709 73.2663 73.5314 69.4979 64.9266 69.2061Z" fill="#FF91AB"/>
<path d="M124.303 88.4058C119.167 85.1553 115.211 79.0701 120.425 68.5842C125.681 58.0154 135.121 54.2721 142.868 54.1432C144.778 54.1114 146.534 55.2227 147.322 56.9623C150.522 64.0183 151.179 74.1526 143.877 83.4264C136.633 92.6275 129.44 91.6564 124.303 88.4058Z" fill="#EDA751"/>
<path d="M147.781 58.0459C150.566 65.0322 150.814 74.6164 143.878 83.4261C137.598 91.4013 131.359 91.7323 126.462 89.5629C126.728 68.032 139.56 60.6039 147.781 58.0459Z" fill="#FF91AB"/>
<path d="M150.889 90.7753C153.362 109.133 136.469 119.594 114.295 122.581C92.1212 125.568 73.0626 119.949 70.5899 101.591C68.1171 83.2338 84.0878 65.9309 106.262 62.9441C128.436 59.9573 148.416 72.418 150.889 90.7753Z" fill="#FFDC9C"/>
<path d="M98.4053 98.6312C97.9746 95.4342 94.3716 93.2809 90.3576 93.8216C86.3437 94.3623 83.4389 97.3923 83.8696 100.589C84.3003 103.786 87.9033 105.94 91.9172 105.399C95.9312 104.858 98.8359 101.828 98.4053 98.6312Z" fill="#FF91AB"/>
<path d="M123.283 95.2809C123.713 98.4779 127.316 100.631 131.33 100.09C135.344 99.5498 138.249 96.5198 137.818 93.3228C137.388 90.1258 133.785 87.9725 129.771 88.5132C125.757 89.054 122.852 92.084 123.283 95.2809Z" fill="#FF91AB"/>
<path d="M118.282 144.263C120.951 144.263 123.114 142.1 123.114 139.431C123.114 136.763 120.951 134.6 118.282 134.6C115.614 134.6 113.451 136.763 113.451 139.431C113.451 142.1 115.614 144.263 118.282 144.263Z" fill="#BD4568"/>
<path d="M111.937 144.642C111.26 144.642 110.606 144.276 110.27 143.634C109.788 142.715 110.142 141.578 111.062 141.096L123.759 134.438C124.679 133.956 125.815 134.311 126.297 135.23C126.78 136.15 126.425 137.287 125.505 137.769L112.809 144.427C112.53 144.573 112.231 144.642 111.937 144.642Z" fill="#7694E4"/>
<path d="M154.141 146.194C156.252 146.194 157.963 144.483 157.963 142.372C157.963 140.261 156.252 138.55 154.141 138.55C152.03 138.55 150.319 140.261 150.319 142.372C150.319 144.483 152.03 146.194 154.141 146.194Z" fill="#82C7E6"/>
<path d="M59.6159 127.161C61.7268 127.161 63.4379 125.449 63.4379 123.339C63.4379 121.228 61.7268 119.517 59.6159 119.517C57.5051 119.517 55.7939 121.228 55.7939 123.339C55.7939 125.449 57.5051 127.161 59.6159 127.161Z" fill="#7694E4"/>
<path d="M66.7575 153.209C68.8684 153.209 70.5795 151.498 70.5795 149.387C70.5795 147.277 68.8684 145.565 66.7575 145.565C64.6467 145.565 62.9355 147.277 62.9355 149.387C62.9355 151.498 64.6467 153.209 66.7575 153.209Z" fill="#FF91AB"/>
<path opacity="0.1" d="M93.5342 45.5967C65.5907 52.3272 50.5552 69.8852 53.5029 91.7686C55.9927 110.253 71.9126 120.374 92.8432 122.397C99.238 123.617 106.577 123.621 114.295 122.582C114.303 122.581 114.311 122.579 114.319 122.578C68.8631 116.589 79.7815 65.0442 93.5342 45.5967Z" fill="black"/>
<path d="M132.143 94.7574C132.306 94.7574 132.472 94.7358 132.637 94.6912C134.428 94.2045 138.85 93.934 140.496 94.117C141.529 94.2329 142.458 93.4884 142.573 92.4564C142.688 91.4241 141.944 90.4941 140.912 90.379C138.823 90.1458 133.956 90.4352 131.651 91.0615C130.648 91.3341 130.057 92.3671 130.329 93.3696C130.557 94.2065 131.315 94.7574 132.143 94.7574ZM65.3189 123.338C65.3189 120.194 62.7606 117.635 59.6161 117.635C56.4716 117.635 53.9135 120.194 53.9135 123.338C53.9135 126.483 56.4718 129.041 59.6161 129.041C62.7603 129.041 65.3189 126.483 65.3189 123.338ZM59.6158 125.28C58.5452 125.28 57.6744 124.409 57.6744 123.338C57.6744 122.268 58.5454 121.397 59.6158 121.397C60.6865 121.397 61.5575 122.268 61.5575 123.338C61.5575 124.409 60.6865 125.28 59.6158 125.28ZM66.7586 143.686C63.6141 143.686 61.0561 146.244 61.0561 149.389C61.0561 152.533 63.6143 155.091 66.7586 155.091C69.9031 155.091 72.4614 152.533 72.4614 149.389C72.4614 146.244 69.9031 143.686 66.7586 143.686ZM66.7586 151.33C65.688 151.33 64.8171 150.459 64.8171 149.389C64.8171 148.318 65.6882 147.447 66.7586 147.447C67.8293 147.447 68.7003 148.318 68.7003 149.389C68.7003 150.46 67.8293 151.33 66.7586 151.33ZM159.368 117.379C153.264 115.668 147.692 115.192 142.385 115.927L142.209 115.593C149.508 111.949 155.456 107.336 159.63 102.041C165.545 94.5378 167.901 85.9542 166.631 76.5293C164.925 63.8622 158.064 53.8972 146.788 47.7107C135.583 41.5631 120.586 39.5359 103.42 41.8482C86.2537 44.1605 72.3285 50.0834 63.1495 58.9771C53.913 67.9262 49.9326 79.3521 51.6389 92.0191C52.9083 101.444 57.4512 109.098 65.1413 114.769C70.5676 118.77 77.524 121.645 85.5268 123.228L85.4847 123.419C80.8102 123.869 73.5132 125.227 68.5306 129.279C65.5192 131.728 65.0619 136.171 67.5111 139.183C68.8661 140.849 70.8509 141.782 72.9558 141.782C73.2743 141.782 73.5955 141.761 73.9174 141.718C75.1982 141.545 76.4072 141.021 77.4142 140.202C79.6403 138.392 85.7974 137.1 91.0885 137.255C92.2461 140.095 93.9642 142.643 96.1015 144.803C94.9824 146.042 93.2932 146.646 89.93 146.234C83.8649 145.491 78.3349 147.292 74.7612 151.172C71.3905 154.832 70.0824 159.955 71.1726 165.226C71.6668 167.615 73.7923 169.298 76.1733 169.297C76.3972 169.297 76.6239 169.282 76.8513 169.252C76.9689 169.236 77.087 169.216 77.2059 169.191C79.9625 168.621 81.7412 165.914 81.171 163.158C80.749 161.118 81.1399 159.317 82.2713 158.089C83.6089 156.637 85.8877 156.027 88.6896 156.368C95.3084 157.178 100.455 155.479 103.983 151.317C104.217 151.041 104.44 150.753 104.658 150.456C105.392 150.75 106.144 151.01 106.91 151.24C107.846 152.826 109.232 156.052 108.353 160.259C107.559 164.059 110.005 167.796 113.805 168.589C114.283 168.689 114.766 168.739 115.249 168.739C115.561 168.739 115.873 168.718 116.184 168.676C119.135 168.279 121.526 166.053 122.135 163.138C122.95 159.235 122.889 155.201 121.974 151.354C124.056 150.775 126.021 149.963 127.838 148.952C129.486 150.203 130.503 151.753 130.39 154.497C130.312 156.376 130.971 158.172 132.245 159.556C133.518 160.939 135.255 161.743 137.132 161.821C137.231 161.825 137.329 161.827 137.427 161.827C137.742 161.827 138.058 161.806 138.37 161.764C141.505 161.342 143.986 158.856 144.402 155.719C144.539 154.689 143.814 153.744 142.785 153.607C141.756 153.471 140.81 154.194 140.674 155.224C140.48 156.684 139.326 157.84 137.868 158.036C137.678 158.062 137.484 158.071 137.288 158.063C136.414 158.027 135.605 157.652 135.012 157.008C134.419 156.363 134.112 155.527 134.148 154.652C134.306 150.833 132.821 148.415 131.11 146.799C132.866 145.447 134.426 143.89 135.751 142.173C137.544 143.903 138.865 145.879 139.685 148.072C139.968 148.828 140.685 149.294 141.447 149.294C141.666 149.294 141.888 149.256 142.106 149.174C143.078 148.81 143.572 147.727 143.208 146.754C142.109 143.817 140.307 141.209 137.843 138.981C139.234 136.447 140.162 133.677 140.534 130.783C144.938 129.253 149.749 129.305 155.567 130.935C156.499 131.196 157.454 131.263 158.405 131.135C161.194 130.759 163.486 128.766 164.246 126.057C164.753 124.247 164.525 122.347 163.604 120.708C162.683 119.069 161.178 117.886 159.368 117.379ZM78.2336 113.43C77.496 112.699 76.3055 112.704 75.5743 113.442C74.8429 114.179 74.8482 115.37 75.5858 116.101C75.7425 116.256 75.903 116.409 76.0647 116.56C64.2362 111.729 56.9222 103.063 55.3671 91.5174C53.8265 80.0815 57.4229 69.7633 65.7672 61.6786C74.3645 53.3488 87.5586 47.7804 103.923 45.5762C120.287 43.3717 134.484 45.2502 144.979 51.0086C155.165 56.5973 161.364 65.5961 162.904 77.032C164.461 88.5872 159.691 98.8873 149.545 106.678C152.451 101.935 153.555 96.4745 152.753 90.5242C152.206 86.4657 150.857 82.6264 148.79 79.1249C152.29 71.8899 152.394 63.5922 149.036 56.1856C147.935 53.7582 145.493 52.219 142.838 52.2628C135.031 52.3927 127.785 55.7927 122.77 61.6329C117.409 60.5139 111.732 60.3098 106.011 61.0803C100.29 61.8511 94.8701 63.5498 89.9967 66.0474C83.6152 61.7425 75.7285 60.3805 68.165 62.3214C65.5836 62.9839 63.6447 65.1124 63.2257 67.7444C61.9467 75.7755 64.2424 83.75 69.5325 89.8011C68.4659 93.7244 68.18 97.7838 68.7266 101.843C69.0255 104.063 69.5651 106.172 70.3299 108.111C70.711 109.077 71.8027 109.551 72.7693 109.171C73.7354 108.79 74.2098 107.698 73.8289 106.731C73.1752 105.074 72.7129 103.26 72.4544 101.341C71.9414 97.5318 72.2706 93.7118 73.3861 90.0282C73.4272 89.9252 73.4598 89.8196 73.4821 89.7121C74.8216 85.4708 77.2084 81.4171 80.566 77.7792C81.1542 77.1418 81.7663 76.5247 82.3996 75.9275C82.4225 75.9082 82.4433 75.8856 82.4653 75.8651C84.8827 73.5966 87.6165 71.6256 90.5948 69.9857C90.7068 69.9386 90.8144 69.8807 90.9167 69.8117C95.6128 67.2788 100.903 65.5635 106.514 64.8078C112.125 64.0515 117.68 64.306 122.879 65.5061C122.996 65.5457 123.116 65.5733 123.236 65.5888C126.521 66.3769 129.659 67.5448 132.574 69.0778C132.593 69.0884 132.611 69.0969 132.63 69.1067C133.427 69.5274 134.208 69.9755 134.97 70.4506C139.17 73.0703 142.544 76.3477 144.958 80.0835C145.008 80.1815 145.068 80.2748 145.135 80.363C147.185 83.6201 148.513 87.2165 149.026 91.0257C150.104 99.0237 147.292 105.733 140.67 110.966C139.936 111.546 139.157 112.104 138.338 112.641C138.325 112.65 138.311 112.659 138.298 112.668C137.016 113.505 135.632 114.29 134.153 115.019C134.112 115.037 134.072 115.057 134.033 115.079C128.558 117.755 121.788 119.674 114.046 120.717C106.295 121.761 99.338 121.705 93.4286 120.609C93.3002 120.567 93.1656 120.538 93.0257 120.524C92.9916 120.521 92.958 120.517 92.9241 120.513C91.4428 120.221 90.0303 119.861 88.6889 119.435C88.5723 119.382 88.4489 119.341 88.3193 119.312C88.3068 119.309 88.2942 119.308 88.2814 119.305C84.2087 117.959 80.819 115.993 78.2336 113.43ZM146.627 60.4306C147.718 63.9442 148.545 69.4151 146.271 75.4681C143.784 72.3394 140.657 69.5663 136.959 67.26C136.793 67.1569 136.626 67.0571 136.459 66.9563C139.738 63.5962 143.513 61.6026 146.627 60.4306ZM133.038 65.1034C131.072 64.1536 129.022 63.3505 126.907 62.6986C132.775 56.8684 139.894 56.0736 142.9 56.0237C143.747 56.0064 144.552 56.3689 145.111 56.983C141.395 58.4064 136.874 60.8722 133.038 65.1034ZM67.2197 67.4746C67.5936 66.7367 68.2698 66.1773 69.099 65.9644C72.0111 65.2172 79.0861 64.1002 86.2881 68.1699C84.4211 69.3582 82.6571 70.675 81.0121 72.1113C76.1926 69.0457 71.1801 67.8643 67.2197 67.4746ZM78.2033 74.8032C78.0689 74.9446 77.9337 75.085 77.8014 75.2284C74.8452 78.4311 72.5629 81.9329 70.9928 85.6082C67.1984 80.3726 66.5482 74.8779 66.6706 71.2008C69.9841 71.507 74.1514 72.4309 78.2033 74.8032ZM75.0417 137.285C74.5723 137.666 74.0099 137.91 73.4154 137.991C72.2731 138.144 71.156 137.703 70.4294 136.81C69.2888 135.408 69.5017 133.338 70.9043 132.198C73.9846 129.693 79.0528 127.929 85.0183 127.25C85.3496 129.222 86.8299 130.907 88.8862 131.385C89.1209 131.44 89.3611 131.487 89.5981 131.538C89.6073 131.613 89.6141 131.691 89.6241 131.765C89.7026 132.347 89.8092 132.919 89.9303 133.484C84.4893 133.53 78.0752 134.818 75.0417 137.285ZM101.115 148.885C98.4569 152.02 94.4303 153.281 89.1465 152.635C85.1096 152.142 81.6855 153.174 79.5049 155.542C77.5306 157.686 76.8142 160.661 77.4882 163.92C77.6384 164.646 77.1697 165.358 76.4449 165.508C76.4123 165.515 76.3797 165.52 76.3483 165.525C75.6535 165.618 74.9984 165.152 74.8559 164.464C74.0142 160.394 74.9881 156.478 77.5278 153.72C80.2709 150.742 84.6252 149.374 89.4735 149.967C93.8187 150.498 96.8246 149.658 98.9391 147.265C99.666 147.804 100.427 148.302 101.213 148.763C101.18 148.804 101.148 148.846 101.115 148.885ZM118.454 162.369C118.17 163.728 117.057 164.764 115.683 164.949C115.316 164.999 114.942 164.985 114.574 164.908C112.805 164.539 111.666 162.798 112.035 161.028C112.78 157.462 112.259 154.429 111.466 152.177C112.493 152.296 113.537 152.363 114.593 152.363C115.805 152.363 117.036 152.282 118.273 152.115C118.279 152.114 118.285 152.113 118.291 152.112C119.104 155.456 119.164 158.97 118.454 162.369ZM117.771 148.387C106.154 149.954 95.5017 142.772 93.5121 132.251C96.6945 132.719 100.039 132.959 103.54 132.959C107.377 132.959 111.396 132.678 115.579 132.114C123.578 131.037 130.725 129.122 136.897 126.412C137.76 137.083 129.385 146.823 117.771 148.387ZM139.337 121.04C132.684 124.643 124.522 127.115 115.077 128.387C105.632 129.659 97.1067 129.435 89.7377 127.721C89.0291 127.556 88.5801 126.845 88.737 126.135L88.8511 125.618C88.8521 125.615 88.8526 125.611 88.8536 125.608L89.2398 123.858C90.329 124.014 91.4342 124.148 92.5558 124.258C95.9222 124.897 99.5817 125.223 103.499 125.223C106.988 125.223 110.681 124.966 114.546 124.445C122.673 123.351 129.828 121.313 135.676 118.457C136.738 118.051 137.778 117.626 138.796 117.183L139.676 118.854C139.678 118.859 139.681 118.863 139.683 118.867L139.883 119.246C140.222 119.889 139.977 120.694 139.337 121.04ZM160.625 125.043C160.271 126.305 159.203 127.233 157.903 127.408C157.462 127.467 157.018 127.436 156.583 127.314C150.663 125.655 145.436 125.487 140.691 126.803C140.66 126.175 140.602 125.543 140.517 124.91C140.507 124.836 140.493 124.76 140.482 124.685C140.697 124.573 140.916 124.462 141.128 124.347C142.921 123.377 143.896 121.463 143.779 119.543C148.309 119.048 153.099 119.528 158.353 121.001C159.196 121.237 159.897 121.788 160.326 122.551C160.755 123.314 160.861 124.199 160.625 125.043ZM154.142 136.67C150.997 136.67 148.439 139.228 148.439 142.373C148.439 145.517 150.997 148.075 154.142 148.075C157.286 148.075 159.844 145.517 159.844 142.373C159.844 139.228 157.286 136.67 154.142 136.67ZM154.142 144.314C153.071 144.314 152.2 143.443 152.2 142.372C152.2 141.302 153.071 140.431 154.142 140.431C155.212 140.431 156.083 141.302 156.083 142.372C156.083 143.443 155.212 144.314 154.142 144.314ZM91.1035 98.6529C91.101 97.6158 90.2595 96.7771 89.2232 96.7771H89.2185C86.8294 96.7831 82.0599 97.7921 80.1064 98.5696C79.1415 98.9538 78.6707 100.047 79.0548 101.012C79.3482 101.749 80.055 102.198 80.8027 102.198C81.0341 102.198 81.2696 102.155 81.4975 102.064C83.0358 101.452 87.3718 100.543 89.228 100.538C90.2663 100.536 91.1063 99.6914 91.1035 98.6529ZM92.7368 93.5165C92.8639 94.4608 93.6711 95.1463 94.5983 95.1463C94.6818 95.1463 94.7665 95.1408 94.8515 95.1292C95.8808 94.9906 96.6029 94.0438 96.4643 93.0145L96.1185 90.4475C95.9799 89.4182 95.0323 88.6956 94.0038 88.8347C92.9745 88.9734 92.2524 89.9202 92.391 90.9494L92.7368 93.5165ZM131.162 100.358C133.004 100.591 137.195 102.025 138.647 102.822C138.934 102.979 139.244 103.054 139.55 103.054C140.214 103.054 140.858 102.702 141.2 102.078C141.7 101.168 141.367 100.024 140.456 99.5247C138.613 98.5132 134.004 96.926 131.633 96.6267C130.606 96.4985 129.662 97.2264 129.532 98.2567C129.401 99.2875 130.131 100.228 131.162 100.358ZM93.1656 103.155C92.7674 102.196 91.6674 101.741 90.7078 102.139C88.5008 103.055 84.4757 105.806 82.9663 107.269C82.2206 107.992 82.2021 109.182 82.9249 109.928C83.2938 110.308 83.7842 110.499 84.2754 110.499C84.7468 110.499 85.2189 110.323 85.5843 109.969C86.7728 108.817 90.4353 106.325 92.1501 105.613C93.1089 105.215 93.5637 104.114 93.1656 103.155ZM104.763 93.2592C106.112 94.4422 107.834 95.0831 109.604 95.0831C109.929 95.0831 110.256 95.0616 110.582 95.0174C112.683 94.7343 114.559 93.5551 115.728 91.7824C116.3 90.9153 116.06 89.7489 115.193 89.1772C114.326 88.6055 113.16 88.845 112.588 89.7118C112.018 90.5769 111.103 91.1523 110.08 91.2899C109.058 91.4281 108.023 91.1152 107.243 90.4317C106.462 89.7467 105.274 89.8244 104.589 90.6052C103.905 91.3862 103.983 92.5745 104.763 93.2592ZM123.667 89.3502C123.794 90.2945 124.601 90.98 125.528 90.98C125.612 90.98 125.697 90.9745 125.782 90.963C126.811 90.8243 127.533 89.8775 127.395 88.8483L127.049 86.2812C126.91 85.2517 125.964 84.5308 124.934 84.6685C123.905 84.8071 123.183 85.7539 123.321 86.7832L123.667 89.3502Z" fill="black"/>
</g>
<path d="M107.757 18.9739C108.056 18.0526 109.36 18.0526 109.659 18.9739L110.555 21.7317C110.689 22.1437 111.073 22.4227 111.506 22.4227H114.406C115.375 22.4227 115.777 23.6623 114.994 24.2317L112.648 25.9361C112.297 26.1907 112.151 26.6421 112.285 27.0541L113.181 29.8119C113.48 30.7332 112.425 31.4993 111.642 30.9299L109.296 29.2255C108.945 28.9709 108.471 28.9709 108.12 29.2255L105.774 30.9299C104.991 31.4993 103.936 30.7332 104.236 29.8119L105.132 27.0541C105.266 26.6421 105.119 26.1907 104.768 25.9361L102.422 24.2317C101.639 23.6623 102.042 22.4227 103.01 22.4227H105.91C106.343 22.4227 106.727 22.1437 106.861 21.7317L107.757 18.9739Z" fill="#CEE441"/>
<path d="M113.374 184.26C113.673 183.339 114.976 183.339 115.276 184.26L116.172 187.018C116.306 187.43 116.69 187.709 117.123 187.709H120.023C120.991 187.709 121.394 188.948 120.61 189.518L118.265 191.222C117.914 191.477 117.767 191.928 117.901 192.34L118.797 195.098C119.097 196.019 118.042 196.785 117.258 196.216L114.913 194.512C114.562 194.257 114.087 194.257 113.737 194.512L111.391 196.216C110.607 196.785 109.553 196.019 109.852 195.098L110.748 192.34C110.882 191.928 110.736 191.477 110.385 191.222L108.039 189.518C107.255 188.948 107.658 187.709 108.627 187.709H111.527C111.96 187.709 112.344 187.43 112.478 187.018L113.374 184.26Z" fill="#CEE441"/>
<path d="M157.503 26.9974C157.802 26.0761 159.106 26.0761 159.405 26.9974L160.301 29.7551C160.435 30.1671 160.819 30.4461 161.252 30.4461H164.152C165.121 30.4461 165.524 31.6857 164.74 32.2551L162.394 33.9595C162.043 34.2142 161.897 34.6655 162.031 35.0775L162.927 37.8353C163.226 38.7566 162.172 39.5227 161.388 38.9533L159.042 37.249C158.691 36.9943 158.217 36.9943 157.866 37.249L155.521 38.9533C154.737 39.5227 153.682 38.7566 153.982 37.8353L154.878 35.0776C155.012 34.6655 154.865 34.2142 154.514 33.9595L152.169 32.2551C151.385 31.6857 151.788 30.4461 152.756 30.4461H155.656C156.089 30.4461 156.473 30.1671 156.607 29.7551L157.503 26.9974Z" fill="#CEE441"/>
<defs>
<filter id="filter0_d" x="0" y="0" width="218.218" height="226.218" filterUnits="userSpaceOnUse" color-interpolation-filters="sRGB">
<feFlood flood-opacity="0" result="BackgroundImageFix"/>
<feColorMatrix in="SourceAlpha" type="matrix" values="0 0 0 0 0 0 0 0 0 0 0 0 0 0 0 0 0 0 127 0"/>
<feOffset dy="12"/>
<feGaussianBlur stdDeviation="2"/>
<feColorMatrix type="matrix" values="0 0 0 0 0 0 0 0 0 0 0 0 0 0 0 0 0 0 0.35 0"/>
<feBlend mode="normal" in2="BackgroundImageFix" result="effect1_dropShadow"/>
<feBlend mode="normal" in="SourceGraphic" in2="effect1_dropShadow" result="shape"/>
</filter>
<clipPath id="clip0">
<rect width="128.378" height="128.378" fill="white" transform="translate(44.9204 40.9199)"/>
</clipPath>
</defs>
</svg>
