<svg width="37" height="32" viewBox="0 0 37 32" fill="none" xmlns="http://www.w3.org/2000/svg">
<path d="M1 30.5882L1 1.45605L30.1322 1.45605V30.5882H1Z" stroke="#FFFDFD" stroke-width="1.66243"/>
<path d="M8.9082 2.30762V30.5887" stroke="#FFFDFD" stroke-width="1.66243"/>
<path d="M4.53857 20.3926H24.2474H37.0001" stroke="#FFFDFD" stroke-width="1.66243"/>
<path d="M17.6214 7.81564L17.6214 10.7011C17.6214 12.5374 19.11 14.026 20.9463 14.026L23.293 14.026C25.1293 14.0259 26.6178 12.5374 26.6178 10.7011L26.6178 7.81564C26.6178 5.97936 25.1292 4.49077 23.293 4.49077L20.9463 4.49077C19.11 4.49077 17.6214 5.97936 17.6214 7.81564Z" stroke="#FDFDFF" stroke-width="1.32995"/>
<path d="M12.0195 28.2764V24.0216H13.5099C14.0262 24.0216 14.4177 24.1209 14.6846 24.3196C14.9515 24.5164 15.085 24.8057 15.085 25.1875C15.085 25.396 15.0314 25.5801 14.9243 25.7399C14.8171 25.8977 14.6681 26.0136 14.4772 26.0876C14.6953 26.1422 14.8668 26.2522 14.9915 26.4178C15.1181 26.5834 15.1814 26.786 15.1814 27.0256C15.1814 27.4348 15.0509 27.7445 14.7898 27.9549C14.5288 28.1653 14.1567 28.2725 13.6735 28.2764H12.0195ZM12.8962 26.4237V27.5721H13.6472C13.8537 27.5721 14.0145 27.5234 14.1294 27.426C14.2463 27.3266 14.3047 27.1903 14.3047 27.0169C14.3047 26.6272 14.1031 26.4295 13.6998 26.4237H12.8962ZM12.8962 25.8041H13.545C13.9872 25.7964 14.2083 25.62 14.2083 25.2752C14.2083 25.0823 14.1518 24.944 14.0388 24.8603C13.9278 24.7745 13.7515 24.7317 13.5099 24.7317H12.8962V25.8041ZM18.5432 27.3997H17.0061L16.7138 28.2764H15.7816L17.3655 24.0216H18.1779L19.7705 28.2764H18.8383L18.5432 27.3997ZM17.2428 26.6896H18.3065L17.7717 25.097L17.2428 26.6896ZM22.6735 27.1601C22.6735 26.9945 22.615 26.8678 22.4981 26.7802C22.3813 26.6906 22.1708 26.597 21.8669 26.4996C21.563 26.4003 21.3224 26.3029 21.1451 26.2074C20.662 25.9464 20.4204 25.5947 20.4204 25.1525C20.4204 24.9226 20.4847 24.718 20.6133 24.5388C20.7438 24.3576 20.9299 24.2164 21.1714 24.1151C21.415 24.0138 21.6877 23.9631 21.9897 23.9631C22.2936 23.9631 22.5644 24.0187 22.8021 24.1297C23.0397 24.2388 23.2238 24.3937 23.3544 24.5943C23.4868 24.795 23.5531 25.0229 23.5531 25.2781H22.6764C22.6764 25.0833 22.615 24.9323 22.4923 24.8252C22.3696 24.7161 22.1971 24.6615 21.9751 24.6615C21.7608 24.6615 21.5942 24.7073 21.4754 24.7989C21.3565 24.8885 21.2971 25.0073 21.2971 25.1554C21.2971 25.2937 21.3663 25.4096 21.5046 25.5032C21.6448 25.5967 21.8504 25.6843 22.1212 25.7662C22.6199 25.9162 22.9832 26.1022 23.2112 26.3243C23.4391 26.5464 23.5531 26.823 23.5531 27.1542C23.5531 27.5224 23.4138 27.8117 23.1352 28.0221C22.8566 28.2306 22.4816 28.3348 22.0101 28.3348C21.6828 28.3348 21.3848 28.2754 21.1159 28.1566C20.8471 28.0358 20.6415 27.8711 20.4993 27.6627C20.3591 27.4542 20.2889 27.2127 20.2889 26.938H21.1685C21.1685 27.4075 21.4491 27.6422 22.0101 27.6422C22.2186 27.6422 22.3813 27.6004 22.4981 27.5166C22.615 27.4309 22.6735 27.312 22.6735 27.1601ZM27.0083 26.4324H25.3251V27.5721H27.3006V28.2764H24.4485V24.0216H27.2947V24.7317H25.3251V25.7457H27.0083V26.4324Z" fill="#FFFDFD"/>
</svg>
