<svg width="50" height="50" viewBox="0 0 50 50" fill="none" xmlns="http://www.w3.org/2000/svg">
<g clip-path="url(#clip0)">
<path d="M49.8409 22.1205C49.7347 21.8663 49.5826 21.6351 49.3889 21.4413L43.1409 15.1934C42.3264 14.3809 41.0097 14.3809 40.1951 15.1934C39.3806 16.0079 39.3806 17.3267 40.1951 18.1392L42.8889 20.8329H31.2513C30.0992 20.8329 29.168 21.7662 29.168 22.9162C29.168 24.0662 30.0992 24.9995 31.2513 24.9995H42.8888L40.195 27.6933C39.3805 28.5078 39.3805 29.8266 40.195 30.6391C40.6013 31.0474 41.1346 31.2495 41.668 31.2495C42.2014 31.2495 42.7347 31.0475 43.1409 30.6391L49.3889 24.3911C49.5826 24.1994 49.7347 23.9682 49.8409 23.7119C50.0513 23.2038 50.0513 22.6288 49.8409 22.1205Z" fill="#06486C"/>
<path d="M35.4181 29.1667C34.266 29.1667 33.3348 30.1 33.3348 31.25V41.6667H25.0015V8.3333C25.0015 7.41455 24.3973 6.60205 23.516 6.3375L16.2806 4.1667H33.3348V14.5834C33.3348 15.7334 34.266 16.6667 35.4181 16.6667C36.5701 16.6667 37.5014 15.7334 37.5014 14.5834V2.0834C37.5014 0.933301 36.5701 0 35.4181 0H2.08477C2.00977 0 1.94307 0.03125 1.87021 0.0395508C1.77227 0.05 1.68271 0.0666016 1.58896 0.0895508C1.37021 0.145801 1.17227 0.23125 0.986914 0.347852C0.941113 0.377051 0.884863 0.379102 0.841113 0.412402C0.824316 0.425 0.818066 0.447949 0.801367 0.460449C0.574316 0.639551 0.384766 0.858301 0.247266 1.11875C0.218066 1.175 0.211816 1.23545 0.188965 1.29375C0.122266 1.45205 0.0494141 1.60625 0.0244141 1.78125C0.0139648 1.84375 0.0327148 1.90205 0.0306641 1.9625C0.0286133 2.0042 0.00146484 2.0417 0.00146484 2.0833V43.75C0.00146484 44.7438 0.703516 45.5979 1.67646 45.7917L22.5098 49.9584C22.6452 49.9876 22.7827 50.0001 22.9181 50.0001C23.3951 50.0001 23.8639 49.8355 24.2389 49.5271C24.7201 49.1313 25.0014 48.5417 25.0014 47.9167V45.8334H35.4181C36.5701 45.8334 37.5014 44.9001 37.5014 43.7501V31.25C37.5014 30.1 36.5701 29.1667 35.4181 29.1667Z" fill="#06486C"/>
</g>
<defs>
<clipPath id="clip0">
<rect width="50" height="50" fill="white"/>
</clipPath>
</defs>
</svg>
