<svg width="80" height="80" viewBox="0 0 80 80" fill="none" xmlns="http://www.w3.org/2000/svg">
<g clip-path="url(#clip0)">
<path d="M37.647 37.647H42.3529V63.5293H37.647V37.647Z" fill="#E6E6E6"/>
<path d="M28.2351 37.647H32.941V63.5293H28.2351V37.647Z" fill="#E6E6E6"/>
<path d="M47.0586 37.647H51.7645V63.5293H47.0586V37.647Z" fill="#E6E6E6"/>
<path d="M70.5881 9.41177H51.7646V7.05882C51.7646 3.16659 48.5981 0 44.7057 0H35.294C31.4016 0 28.2352 3.16659 28.2352 7.05882V9.41177H9.41162V23.5294H14.3133L18.6402 73.293C18.827 77.0588 21.9128 80 25.6902 80H54.3094C58.0868 80 61.1726 77.0588 61.3594 73.293L65.6865 23.5294H70.5881V9.41177ZM32.941 7.05882C32.941 5.76141 33.9966 4.70588 35.294 4.70588H44.7057C46.0033 4.70588 47.0587 5.76141 47.0587 7.05882V9.41177H32.941V7.05882ZM14.1175 14.1176H65.8822V18.8235H14.1175V14.1176ZM56.6604 73.0391C56.6077 74.3035 55.5751 75.2941 54.3095 75.2941H25.6902C24.4246 75.2941 23.392 74.3037 23.3393 73.0391C18.7357 20.0654 19.0505 23.6875 19.0367 23.5294H60.963C60.9505 23.6714 61.2435 20.3029 56.6604 73.0391Z" fill="#E6E6E6"/>
</g>
<defs>
<clipPath id="clip0">
<rect width="80" height="80" fill="white"/>
</clipPath>
</defs>
</svg>
